# xmcd CD database file
#
# Track frame offsets:
#	150
#	25677
#	44157
#	56247
#	71347
#	99000
#	112452
#	130472
#	148382
#	170027
#	190247
#	213800
#	236477
#	255047
#
# Disc length: 3682 seconds
#
# Revision: 0
# Processed by: cddbd v1.5.1PL0 Copyright (c) Steve Scherf et al.
# Submitted via: CDex 1.51
#
DISCID=d00e600e
DTITLE=DMX Krew - Nu Romantix and 17 Ways To Break My Heart
DYEAR=1998
DGENRE=Electronic
TTITLE0=Come To Me
TTITLE1=Can U Feel The Power
TTITLE2=Mouse
TTITLE3=You're Not There
TTITLE4=End Of Hte Night
TTITLE5=You Can Do It
TTITLE6=Place Called Love
TTITLE7=I'm All Alone (Cylob's Mix)
TTITLE8=17 Ways To Break My Heart
TTITLE9=Sound Of The Street 98
TTITLE10=Sound Of The Beat
TTITLE11=Good Ol'Daze
TTITLE12=Syntem Shokk
TTITLE13=Say You'll Never
EXTD=YEAR: 1998
EXTT0=
EXTT1=
EXTT2=
EXTT3=
EXTT4=
EXTT5=
EXTT6=
EXTT7=
EXTT8=
EXTT9=
EXTT10=
EXTT11=
EXTT12=
EXTT13=
PLAYORDER=
